HIERARCHY
ROOT Hips
{
	OFFSET 0.00000 0.00000 0.00000
	CHANNELS 6 Xposition Yposition Zposition Yrotation Zrotation Xrotation 
	JOINT Lumbar
	{
		OFFSET 0 0 0
		CHANNELS 3 Zrotation Xrotation Yrotation
		JOINT Neck
		{
			OFFSET 0.00 0.2701 0.00
			CHANNELS 3 Zrotation Xrotation Yrotation
			End Site
			{
				OFFSET 0.00 0.1379 0.00
			}
		}
		JOINT RightShoulder
		{
			OFFSET 0.0119 0.2289 0.1181
			CHANNELS 3 Zrotation Xrotation Yrotation
			JOINT RightElbow
			{
				OFFSET 0.00 -0.1475 0.00
				CHANNELS 2 Zrotation Yrotation
				JOINT RightWrist
				{
					OFFSET 0.00 -0.1605 0.00
					CHANNELS 2 Zrotation Xrotation
					End Site
					{
						OFFSET 0.0040 -0.1068 0.0006
					}
				}
			}
		}
		JOINT LeftShoulder
		{
			OFFSET 0.0119 0.2289 -0.1181
			CHANNELS 3 Zrotation Xrotation Yrotation
			JOINT LeftElbow
			{
				OFFSET 0.00 -0.1475 0.00
				CHANNELS 2 Zrotation Yrotation
				JOINT LeftWrist
				{
					OFFSET 0.00 -0.1605 0.00
					CHANNELS 2 Zrotation Xrotation
					End Site
					{
						OFFSET 0.0040 -0.1068 -0.0006
					}
				}
			}
		}
	}
	JOINT RightHip
	{
		OFFSET 0.0316 -0.0424 0.0458
		CHANNELS 3 Zrotation Xrotation Yrotation
		JOINT RightKnee
		{
			OFFSET 0.00 -0.2438 0.00
			CHANNELS 1 Zrotation
			JOINT RightAnkle
			{
				OFFSET 0.00 -0.2449 0.00
				CHANNELS 3 Zrotation Xrotation Yrotation
				End Site
				{
					OFFSET 0.1237 -0.0542 0.0051
				}
			}
		}
	}
	JOINT LeftHip
	{
		OFFSET 0.0316 -0.0424 -0.0458
		CHANNELS 3 Zrotation Xrotation Yrotation
		JOINT LeftKnee
		{
			OFFSET 0.00 -0.2438 0.00
			CHANNELS 1 Zrotation
			JOINT LeftAnkle
			{
				OFFSET 0.00 -0.2449 0.00
				CHANNELS 3 Zrotation Xrotation Yrotation
				End Site
				{
					OFFSET 0.1237 -0.0542 -0.0051
				}
			}
		}
	}
}
MOTION
Frames: 11
Frame Time: 0.02
6e-05 7e-05 0.00051 -175.99574 -43.03915 0.30578 48.91723 2.65139 -5.67722 7.83736 -1.95786 -0.35511 -17.98979 -11.48229 -5.6758 33.75907 89.95462 4.05885 1.0312 -22.05257 -2.65841 35.95864 45.53599 -180.73607 38.59024 -14.09752 44.87663 -0.55916 -0.49862 -19.56643 -6.35024 -4.38465 -2.92325 48.96272 3.91418 2.31206 -24.82175 -6.25184 2.53053 1.92641
7e-05 6e-05 0.00076 -176.07916 -42.99012 0.26985 48.95892 2.65923 -5.67624 7.69765 -1.90957 -0.35567 -18.11838 -11.4619 -5.75618 33.51866 90.05703 4.08968 1.03412 -22.41886 -0.82552 31.45946 45.46429 -173.18514 36.09791 -12.84636 44.82235 -0.59383 -0.69609 -19.54896 -6.34205 -4.36275 -2.90858 48.89649 3.94087 2.477 -24.81946 -6.2547 2.51226 1.91706
7e-05 5e-05 0.001 -176.1625 -42.94118 0.23398 49.00048 2.66709 -5.67541 7.55856 -1.86154 -0.35622 -18.24578 -11.44183 -5.83609 33.27851 90.16007 4.12084 1.03714 -22.7829 1.00261 26.97186 45.39246 -165.65866 33.61446 -11.59902 44.76824 -0.62848 -0.89357 -19.53155 -6.33385 -4.34083 -2.89391 48.83045 3.96738 2.64076 -24.81721 -6.25754 2.49414 1.90779
8e-05 4e-05 0.00124 -176.24569 -42.89229 0.19815 49.04204 2.67491 -5.67445 7.4193 -1.8134 -0.35678 -18.37388 -11.42157 -5.91613 33.03874 90.26203 4.15157 1.04003 -23.14795 2.83 22.48614 45.32092 -158.13119 31.13001 -10.3517 44.71413 -0.66306 -1.09054 -19.51414 -6.32568 -4.31899 -2.87928 48.76441 3.99397 2.80506 -24.81494 -6.26039 2.47594 1.89848
9e-05 3e-05 0.00149 -176.32891 -42.84332 0.16226 49.08374 2.6827 -5.67329 7.27936 -1.76499 -0.35733 -18.50337 -11.40085 -5.99691 32.79897 90.36382 4.18203 1.04288 -23.51549 4.66183 17.98981 45.24964 -150.5788 28.6362 -9.10059 44.65986 -0.69763 -1.28723 -19.49666 -6.31752 -4.29719 -2.86466 48.69819 4.02081 2.97087 -24.8126 -6.26324 2.45754 1.88907
9e-05 3e-05 0.00173 -176.41251 -42.79449 0.12644 49.12498 2.69071 -5.67316 7.14207 -1.71778 -0.35789 -18.62633 -11.38212 -6.07507 32.55806 90.4699 4.21476 1.04631 -23.87208 6.48206 13.52088 45.17665 -143.10717 26.17463 -7.86123 44.60608 -0.73242 -1.48636 -19.47941 -6.30924 -4.27504 -2.84989 48.63253 4.0466 3.13036 -24.81054 -6.26607 2.44002 1.88011
0.0001 2e-05 0.00198 -176.49521 -42.74541 0.09052 49.16709 2.69826 -5.67096 6.99958 -1.66813 -0.35844 -18.7625 -11.35954 -6.15794 32.31956 90.56516 4.24232 1.04829 -24.25074 8.32356 9.00168 45.10721 -135.48185 23.65116 -6.59966 44.55136 -0.76675 -1.68041 -19.46171 -6.30121 -4.25362 -2.83544 48.56581 4.07445 3.30219 -24.80795 -6.26895 2.42078 1.87025
0.00011 1e-05 0.00222 -176.57879 -42.69657 0.05472 49.20841 2.70622 -5.67065 6.86192 -1.62088 -0.35899 -18.88611 -11.34027 -6.23736 32.07908 90.67418 4.2757 1.05214 -24.60823 10.14553 4.52898 45.03445 -127.99718 21.18428 -5.35845 44.49755 -0.80148 -1.87904 -19.44442 -6.29296 -4.23154 -2.8207 48.50009 4.10047 3.46298 -24.80582 -6.27178 2.40308 1.86121
0.00012 0 0.00246 -176.66332 -42.64795 0.01892 49.24876 2.71475 -5.67272 6.73001 -1.57595 -0.35955 -18.99578 -11.32603 -6.30902 31.83505 90.78522 4.31212 1.05616 -24.94303 11.94423 0.11025 44.95771 -120.68579 18.78771 -4.14207 44.44467 -0.83683 -2.0839 -19.42765 -6.2844 -4.20857 -2.80557 48.43549 4.12394 3.60886 -24.80434 -6.27454 2.38744 1.85323
0.00011 -1e-05 0.00274 -176.742 -42.59784 -0.01732 49.29467 2.72021 -5.66134 6.56454 -1.51584 -0.3601 -19.18988 -11.28582 -6.41468 31.60803 90.84014 4.3188 1.05284 -25.41796 13.87872 -4.62781 44.90407 -112.38126 15.98997 -2.7826 44.38588 -0.86899 -2.25483 -19.40797 -6.27747 -4.19045 -2.79258 48.36413 4.16116 3.83627 -24.7994 -6.27769 2.36046 1.83933
0.00014 -1e-05 0.00292 -176.83327 -42.55105 -0.05233 49.32888 2.73203 -5.67816 6.47017 -1.48893 -0.36067 -19.20325 -11.29845 -6.45542 31.34736 91.04179 4.39601 1.06906 -25.59124 15.52526 -8.68595 44.80161 -106.17006 14.03652 -1.72528 44.33992 -0.90766 -2.49604 -19.39436 -6.26721 -4.16229 -2.77516 48.3072 4.16994 3.89447 -24.80157 -6.28005 2.3571 1.83778
